<?xml version="1.0" encoding="UTF-8"?>
<svg version="1.1" xmlns="http://www.w3.org/2000/svg" width="369" height="96">
<path d="M0 0 C121.77 0 243.54 0 369 0 C369 31.68 369 63.36 369 96 C247.23 96 125.46 96 0 96 C0 64.32 0 32.64 0 0 Z " fill="#2B2B2B" transform="translate(0,0)"/>
<path d="M0 0 C3.33186465 0.01838913 6.66345084 0.02050771 9.99536133 0.02026367 C47.23323076 0.07997874 47.23323076 0.07997874 55.38012695 6.45581055 C62.13251667 15.19419724 60.68721139 28.96045284 60.69262695 39.45581055 C60.70487305 40.68944336 60.71711914 41.92307617 60.72973633 43.1940918 C60.76522103 65.69139044 60.76522103 65.69139044 55.50512695 73.20581055 C51.19066473 77.41921185 48.02392269 79.04606987 41.9465332 79.50268555 C41.18208389 79.57324158 40.41763458 79.64379761 39.63002014 79.7164917 C28.55075926 80.60865465 17.40740889 80.50331794 6.30078125 80.46655273 C2.44621081 80.45582053 -1.40789471 80.46650976 -5.26245117 80.47924805 C-41.28831969 80.50331565 -41.28831969 80.50331565 -47.93237305 75.33081055 C-56.25406338 66.66899663 -54.82497233 51.31121149 -54.75561523 40.08203125 C-54.74482492 38.00906523 -54.75562455 35.93695494 -54.76831055 33.86401367 C-54.79207609 12.40261402 -54.79207609 12.40261402 -48.49487305 5.20581055 C-44.03293472 1.78050016 -39.72405094 1.4676756 -34.2956543 1.0300293 C-33.38012283 0.95024338 -32.46459137 0.87045746 -31.52131653 0.78825378 C-21.02332718 -0.03917205 -10.524468 -0.05992635 0 0 Z " fill="#F9001A" transform="translate(58.494873046875,7.794189453125)"/>
<path d="M0 0 C3.3 0 6.6 0 10 0 C10.33 8.25 10.66 16.5 11 25 C13.97 22.525 13.97 22.525 17 20 C21.20117804 19.3366561 23.15886171 19.49531702 26.8125 21.6875 C32.44604308 27.64295983 31.37226682 35.3556248 31.37060547 43.03686523 C31.37496723 45.29553294 31.41128861 47.55222579 31.44921875 49.81054688 C31.56028898 63.68759999 31.56028898 63.68759999 27 70 C23.26703038 72.26810346 20.35606711 72.45853338 16 72 C13.0625 70 13.0625 70 11 68 C10.34 68.99 9.68 69.98 9 71 C6.03 71 3.06 71 0 71 C0 47.57 0 24.14 0 0 Z " fill="#FCFCFC" transform="translate(298,11)"/>
<path d="M0 0 C4.08991551 2.40583265 6.31204432 5.15571561 7.77636719 9.70410156 C8.70288975 14.59640481 8.41563971 19.66271494 8.4375 24.625 C8.458125 25.78 8.47875 26.935 8.5 28.125 C8.53505747 35.80258556 8.19608894 42.09000101 3.25 48.3125 C-1.53976727 51.94111157 -8.07146632 51.45742371 -13.8125 50.875 C-18.25007713 48.89393878 -20.37832948 46.75835511 -22.20605469 42.25415039 C-23.60567314 36.76329619 -23.23799379 31.00225194 -23.1875 25.375 C-23.19910156 24.08207031 -23.21070313 22.78914063 -23.22265625 21.45703125 C-23.19827613 13.54974459 -23.05237862 7.72235586 -17.8125 1.5 C-12.72173368 -2.63624763 -5.91671118 -1.74591477 0 0 Z " fill="#F8F8F8" transform="translate(187.8125,32.125)"/>
<path d="M0 0 C3.80785932 1.4583291 5.93460922 3.63211943 8.16430664 7.04736328 C9.90200034 11.10756608 9.40270287 15.54058766 9.25 19.875 C9.23195313 20.84953125 9.21390625 21.8240625 9.1953125 22.828125 C9.14842913 25.21917673 9.07669352 27.60971873 9 30 C2.73 30 -3.54 30 -10 30 C-9.34 34.29 -8.68 38.58 -8 43 C-6.35 43 -4.7 43 -3 43 C-2.34 40.69 -1.68 38.38 -1 36 C2.3 36 5.6 36 9 36 C9.35877525 42.09917929 8.38616338 45.09510545 4.5625 49.75 C0.75788672 52.79369062 -4.65491875 52.4025213 -9.3046875 52.328125 C-12.4547106 51.94464393 -14.61925572 51.02729876 -16.86669922 48.72485352 C-21.37860865 41.85784788 -21.46955731 33.3645543 -21.375 25.4375 C-21.38660156 24.46103516 -21.39820313 23.48457031 -21.41015625 22.47851562 C-21.38530084 16.28537577 -20.77222004 10.61944685 -18 5 C-12.38896404 -0.47418143 -7.56946095 -0.5923926 0 0 Z " fill="#F7F7F7" transform="translate(355,31)"/>
<path d="M0 0 C3.63 0 7.26 0 11 0 C11.33 14.19 11.66 28.38 12 43 C13.98 42.34 15.96 41.68 18 41 C18.33 27.47 18.66 13.94 19 0 C22.96 0 26.92 0 31 0 C31 16.83 31 33.66 31 51 C28.03 51 25.06 51 22 51 C21.34 49.35 20.68 47.7 20 46 C19.401875 46.639375 18.80375 47.27875 18.1875 47.9375 C14.77131523 51.15847421 11.54725493 51.33990539 6.9375 51.2890625 C5 51 5 51 2.5625 49.1875 C0.27398862 45.98358407 -0.1244969 43.44941646 -0.11352539 39.62036133 C-0.11344986 38.73967484 -0.11337433 37.85898834 -0.11329651 36.95161438 C-0.10813522 36.00465195 -0.10297394 35.05768951 -0.09765625 34.08203125 C-0.0962413 33.10965012 -0.09482635 32.13726898 -0.09336853 31.13542175 C-0.08776817 28.02774996 -0.07521562 24.92015004 -0.0625 21.8125 C-0.05748505 19.70638125 -0.05292213 17.60026137 -0.04882812 15.49414062 C-0.03779862 10.32939936 -0.02053375 5.16471187 0 0 Z " fill="#F6F6F6" transform="translate(202,32)"/>
<path d="M0 0 C3.63 0 7.26 0 11 0 C11.33 13.53 11.66 27.06 12 41 C13.65 41.33 15.3 41.66 17 42 C19.15456969 39.84543031 18.26026626 34.9288373 18.31640625 31.93359375 C18.33718735 31.02497086 18.35796844 30.11634796 18.37937927 29.18019104 C18.44497672 26.26604054 18.5038068 23.35179696 18.5625 20.4375 C18.60567554 18.46678709 18.64928951 16.49608374 18.69335938 14.52539062 C18.80066843 9.68369012 18.90190675 4.84189563 19 0 C22.96 0 26.92 0 31 0 C31 16.5 31 33 31 50 C27.7 50 24.4 50 21 50 C20.67 48.68 20.34 47.36 20 46 C19.195625 46.825 18.39125 47.65 17.5625 48.5 C14.17748264 51.31414745 11.39127155 51.73701509 7.0546875 51.49609375 C5 51 5 51 2.5 48.6875 C0.55865892 45.2092639 -0.12502196 42.6324898 -0.11352539 38.7121582 C-0.11344986 37.85149246 -0.11337433 36.99082672 -0.11329651 36.1040802 C-0.10813522 35.17899155 -0.10297394 34.25390289 -0.09765625 33.30078125 C-0.0962413 32.35059616 -0.09482635 31.40041107 -0.09336853 30.4214325 C-0.08776875 27.38508971 -0.07521632 24.34882052 -0.0625 21.3125 C-0.05748497 19.25455836 -0.05292207 17.19661556 -0.04882812 15.13867188 C-0.0377994 10.09241954 -0.02053493 5.04622225 0 0 Z " fill="#F7F7F7" transform="translate(260,32)"/>
<path d="M0 0 C3.96 0 7.92 0 12 0 C14.31 10.56 16.62 21.12 19 32 C20.93157127 22.59159753 20.93157127 22.59159753 22.85913086 13.18237305 C23.10026611 12.01230713 23.34140137 10.84224121 23.58984375 9.63671875 C23.83597412 8.43748779 24.08210449 7.23825684 24.33569336 6.00268555 C25 3 25 3 26 0 C29.63 0 33.26 0 37 0 C35.71876163 6.58755434 34.31460575 13.1146307 32.6875 19.625 C32.36700684 20.92957153 32.36700684 20.92957153 32.04003906 22.26049805 C31.03881361 26.24968718 29.99372362 30.17236466 28.59765625 34.04296875 C24.42621452 45.63659716 24.11770934 56.75822867 24 69 C20.37 69 16.74 69 13 69 C12.99742187 67.53433594 12.99484375 66.06867188 12.9921875 64.55859375 C12.77769329 49.54149013 10.36975446 36.32432902 6 22 C5.42224261 20.06147618 4.8454152 18.12267494 4.26953125 16.18359375 C3.46735376 13.49075356 2.65994381 10.80042674 1.8293457 8.11621094 C0 2.19799223 0 2.19799223 0 0 Z " fill="#F7F7F7" transform="translate(130,13)"/>
<path d="M0 0 C10.89 0 21.78 0 33 0 C33 2.64 33 5.28 33 8 C29.37 8 25.74 8 22 8 C22 27.8 22 47.6 22 68 C18.37 68 14.74 68 11 68 C11 48.53 11 29.06 11 9 C7.37 9 3.74 9 0 9 C0 6.03 0 3.06 0 0 Z " fill="#FCFCFC" transform="translate(230,14)"/>
<path d="M0 0 C16.39561856 8.19780928 16.39561856 8.19780928 22.375 11.8125 C23.02726562 12.19341797 23.67953125 12.57433594 24.3515625 12.96679688 C25.9382206 13.9184584 27.47550372 14.95164191 29 16 C29 16.66 29 17.32 29 18 C25.03224148 20.28137583 21.06290034 22.55996306 17.09204102 24.8359375 C15.74036063 25.6112066 14.38912233 26.38724698 13.03833008 27.1640625 C11.10091965 28.27805573 9.16195603 29.38929996 7.22265625 30.5 C6.61535172 30.84998047 6.00804718 31.19996094 5.38233948 31.56054688 C1.11387171 34 1.11387171 34 0 34 C0 22.78 0 11.56 0 0 Z " fill="#FDF7F7" transform="translate(50,31)"/>
<path d="M0 0 C1.875 0.9375 1.875 0.9375 3.875 3.9375 C4.32052222 8.38163366 4.1991008 12.84851213 4.1875 17.3125 C4.20361328 18.54484375 4.21972656 19.7771875 4.23632812 21.046875 C4.23697266 22.23539063 4.23761719 23.42390625 4.23828125 24.6484375 C4.24275269 26.27724854 4.24275269 26.27724854 4.24731445 27.93896484 C3.83126543 31.28972822 2.79717303 33.19607656 0.875 35.9375 C-5 35.0625 -5 35.0625 -6.125 33.9375 C-6.39138689 29.71756424 -6.39627175 25.49173833 -6.42016602 21.2644043 C-6.43734844 19.14370623 -6.48121292 17.02457988 -6.52539062 14.90429688 C-6.5355202 13.55469898 -6.54403548 12.2050878 -6.55078125 10.85546875 C-6.56536377 9.62594482 -6.57994629 8.3964209 -6.5949707 7.12963867 C-6.125 3.9375 -6.125 3.9375 -4.23120117 1.5012207 C-2.125 -0.0625 -2.125 -0.0625 0 0 Z " fill="#393939" transform="translate(314.125,39.0625)"/>
<path d="M0 0 C4.875 0.875 4.875 0.875 6 2 C6.11317284 4.35228319 6.16416537 6.67411948 6.16796875 9.02734375 C6.17129715 9.73145889 6.17462555 10.43557404 6.17805481 11.161026 C6.18312655 12.65316106 6.18546306 14.1453075 6.18530273 15.63745117 C6.18748759 17.92450607 6.20563549 20.21107753 6.22460938 22.49804688 C6.22754354 23.94531084 6.22952818 25.39257711 6.23046875 26.83984375 C6.23765427 27.52634506 6.24483978 28.21284637 6.25224304 28.92015076 C6.22882369 33.77117631 6.22882369 33.77117631 4 36 C1.4375 35.75 1.4375 35.75 -1 35 C-3.10179203 30.79641595 -2.18585823 25.30263057 -2.18530273 20.67871094 C-2.18748421 18.63976008 -2.20563067 16.60135475 -2.22460938 14.5625 C-2.22654297 13.27601562 -2.22847656 11.98953125 -2.23046875 10.6640625 C-2.23457764 9.48279785 -2.23868652 8.3015332 -2.24291992 7.08447266 C-2.01075286 4.13653428 -1.54396561 2.48059474 0 0 Z " fill="#2D2D2D" transform="translate(178,39)"/>
<path d="M0 0 C1.65 0 3.3 0 5 0 C7.02558881 3.34939881 7.21738987 5.86962551 7.125 9.75 C7.10695313 10.73484375 7.08890625 11.7196875 7.0703125 12.734375 C7.03550781 13.85585938 7.03550781 13.85585938 7 15 C4.03 15 1.06 15 -2 15 C-2.05429959 13.25034642 -2.09292823 11.50020213 -2.125 9.75 C-2.15980469 8.28820312 -2.15980469 8.28820312 -2.1953125 6.796875 C-1.99862781 3.9803502 -1.44568916 2.39050964 0 0 Z " fill="#3B3B3B" transform="translate(347,39)"/>
</svg>
